#!OML:ASF H:\Terrain\Walking\May29\JustinRory\Justin.ASF
:FULLY-SPECIFIED
:DEGREES
666
root 16.8485 9.86109 -6.64599 -138.077 -87.7721 115.532
lowerback 42.7215 2.49219 -0.615645
upperback 15.9196 0.305344 1.81487
thorax -2.45229 -1.09282 2.16848
lowerneck -21.5534 4.56025 -6.64474
upperneck 23.6998 10.597 -8.10203
head 11.5406 2.92853 -0.222022
rclavicle -2.38542e-015 -1.19271e-015
rhumerus 25.1155 34.0037 -64.5823
rradius 65.6148
rwrist 14.0795
rhand -2.41603 20.8678
rfingers 7.12502
rthumb 23.2743 -7.74552
lclavicle -2.38542e-015 -1.19271e-015
lhumerus 27.0154 -22.0273 79.7251
lradius 53.7533
lwrist -28.4225
lhand 23.3508 34.2045
lfingers 7.12502
lthumb 47.6428 56.5823
rfemur -67.0496 -11.2298 16.2485
rtibia 72.8501
rfoot 19.7522 -0.934948
rtoes 21.2961
lfemur -66.6536 9.53093 -12.6465
ltibia 73.4253
lfoot 20.9011 -2.37663
ltoes 26.362
667
root 16.8452 9.85932 -6.64058 -137.293 -87.7542 114.82
lowerback 42.8313 2.52374 -0.586174
upperback 15.8577 0.362269 1.80559
thorax -2.5522 -1.05846 2.12431
lowerneck -20.9619 3.9942 -7.56941
upperneck 22.5503 9.67929 -7.21531
head 10.8748 2.66939 0.0837447
rclavicle -3.18055e-015 1.55052e-014
rhumerus 24.8987 33.7987 -64.6052
rradius 65.718
rwrist 14.1852
rhand -2.57947 21.1336
rfingers 7.12502
rthumb 23.1175 -7.49949
lclavicle -3.18055e-015 1.55052e-014
lhumerus 26.9751 -22.071 79.9291
lradius 53.8725
lwrist -28.5857
lhand 23.1442 33.8262
lfingers 7.12502
lthumb 47.4521 56.2906
rfemur -67.1409 -11.3196 16.2177
rtibia 72.8481
rfoot 19.6955 -0.692163
rtoes 21.2146
lfemur -66.7864 9.65159 -12.943
ltibia 73.4071
lfoot 20.7538 -2.37031
ltoes 25.2227
668
root 16.8397 9.8584 -6.64647 -129.079 -87.3503 106.802
lowerback 42.8269 2.71574 -1.18129
upperback 15.727 0.390596 1.75285
thorax -2.70554 -1.05479 2.36384
lowerneck -19.5152 3.46608 -9.24165
upperneck 20.5595 8.7036 -5.71381
head 9.71582 2.48087 0.683948
rclavicle -3.97569e-016 1.15295e-014
rhumerus 24.6125 33.7799 -64.5509
rradius 65.9071
rwrist 14.0744
rhand -2.5857 21.2221
rfingers 7.12502
rthumb 23.1115 -7.41175
lclavicle -3.97569e-016 1.15295e-014
lhumerus 26.7619 -22.0628 80.168
lradius 54.0712
lwrist -28.9878
lhand 23.5542 33.7854
lfingers 7.12502
lthumb 47.8305 56.077
rfemur -67.497 -11.3834 15.7577
rtibia 72.9311
rfoot 19.6354 -0.244321
rtoes 19.6117
lfemur -66.9885 9.64531 -13.5729
ltibia 73.3581
lfoot 20.7454 -2.31138
ltoes 24.528
669
root 16.8298 9.85382 -6.64686 -124.405 -87.0922 102.279
lowerback 42.7866 2.8322 -1.40545
upperback 15.6401 0.469892 1.72334
thorax -2.79728 -1.01157 2.41871
lowerneck -18.2461 2.83638 -11.212
upperneck 18.8872 7.67645 -3.97598
head 8.75636 2.22567 1.39871
rclavicle -3.18055e-015 0
rhumerus 24.4144 33.5213 -64.4194
rradius 65.9678
rwrist 14.025
rhand -2.62568 21.1128
rfingers 7.12502
rthumb 23.0732 -7.52583
lclavicle -3.18055e-015 0
lhumerus 26.6753 -22.2895 80.3677
lradius 54.1405
lwrist -29.3537
lhand 23.9336 33.576
lfingers 7.12502
lthumb 48.1803 55.7042
rfemur -67.7871 -11.5363 15.526
rtibia 73.0435
rfoot 19.7617 0.0729546
rtoes 18.0018
lfemur -67.0297 9.52939 -13.8122
ltibia 73.2773
lfoot 20.7094 -2.46989
ltoes 25.5305
670
root 16.8228 9.85747 -6.64237 -120.216 -87.0412 98.1542
lowerback 42.7509 2.79838 -1.35456
upperback 15.5841 0.464882 1.64161
thorax -2.8475 -0.996745 2.30847
lowerneck -17.7837 2.33334 -12.272
upperneck 18.2371 6.90486 -2.7751
head 8.3892 1.98735 1.85463
rclavicle -1.74931e-014 -1.43125e-014
rhumerus 24.2535 33.2481 -64.5761
rradius 65.8878
rwrist 14.1005
rhand -2.74198 21.0237
rfingers 7.12502
rthumb 22.9616 -7.62885
lclavicle -1.74931e-014 -1.43125e-014
lhumerus 26.5677 -22.4671 80.4562
lradius 54.1117
lwrist -29.5244
lhand 23.962 33.0682
lfingers 7.12502
lthumb 48.2064 55.1841
rfemur -67.8436 -11.7482 15.2923
rtibia 73.1306
rfoot 19.7973 -0.197689
rtoes 19.453
lfemur -67.0247 9.3405 -14.0033
ltibia 73.2023
lfoot 20.6648 -2.58799
ltoes 25.7621
671
root 16.8238 9.86804 -6.64383 -116 -86.9393 94.0074
lowerback 42.7534 2.79534 -1.51987
upperback 15.4878 0.416745 1.59614
thorax -2.95438 -1.01368 2.36389
lowerneck -17.937 2.07571 -12.3889
upperneck 18.3088 6.54842 -2.43011
head 8.43859 1.84498 1.95289
rclavicle -1.19271e-015 2.78299e-015
rhumerus 23.9465 33.2178 -64.815
rradius 66.0366
rwrist 13.9768
rhand -2.43312 20.6562
rfingers 7.12502
rthumb 23.2579 -7.95915
lclavicle -1.19271e-015 2.78299e-015
lhumerus 26.2725 -22.4188 80.6491
lradius 54.2275
lwrist -29.6552
lhand 24.1683 33.1045
lfingers 7.12502
lthumb 48.3965 55.1301
rfemur -67.839 -11.9125 14.9785
rtibia 73.1503
rfoot 19.7135 -0.672449
rtoes 21.9988
lfemur -67.202 9.25597 -14.4147
ltibia 73.2115
lfoot 20.8471 -2.56587
ltoes 24.2127
672
root 16.8299 9.8712 -6.64814 -115.136 -86.6994 93.2067
lowerback 42.787 2.8982 -1.90832
upperback 15.4098 0.394083 1.5199
thorax -3.05187 -1.03172 2.49115
lowerneck -17.7649 1.93839 -11.8882
upperneck 18.1231 6.26595 -2.81804
head 8.38818 1.71883 1.70738
rclavicle 3.97569e-016 2.0276e-014
rhumerus 24.1343 33.3082 -64.7241
rradius 66.0498
rwrist 13.5772
rhand -2.05024 20.4078
rfingers 7.12502
rthumb 23.6252 -8.16075
lclavicle 3.97569e-016 2.0276e-014
lhumerus 26.0592 -22.2612 80.6686
lradius 54.3931
lwrist -29.708
lhand 24.4153 33.9594
lfingers 7.12502
lthumb 48.6238 55.8759
rfemur -67.8966 -11.9017 14.8231
rtibia 73.0992
rfoot 19.7777 -0.467333
rtoes 21.2659
lfemur -67.2768 9.12811 -14.3934
ltibia 73.2923
lfoot 21.1119 -2.61879
ltoes 24.1894
673
root 16.8353 9.87256 -6.64995 -117.442 -86.6009 95.6085
lowerback 42.8073 3.04479 -2.29281
upperback 15.3279 0.433138 1.59235
thorax -3.15542 -1.02907 2.7512
lowerneck -17.1642 1.88495 -11.1722
upperneck 17.4247 6.02201 -3.63334
head 8.10673 1.6191 1.27674
rclavicle 7.95139e-015 3.18055e-015
rhumerus 24.4866 33.5673 -64.4343
rradius 65.8971
rwrist 13.3633
rhand -2.03678 20.5434
rfingers 7.12502
rthumb 23.6381 -8.0234
lclavicle 7.95139e-015 3.18055e-015
lhumerus 25.8316 -21.9552 80.8229
lradius 54.5046
lwrist -29.8345
lhand 24.0757 34.791
lfingers 7.12502
lthumb 48.3112 56.8573
rfemur -68.0565 -11.6798 14.8531
rtibia 73.0937
rfoot 19.8449 -0.405303
rtoes 20.565
lfemur -67.2675 9.05477 -14.1468
ltibia 73.3492
lfoot 21.0221 -2.5974
ltoes 24.5479
674
root 16.8334 9.87564 -6.64964 -117.48 -86.5576 95.7651
lowerback 42.8224 3.20263 -2.78277
upperback 15.2122 0.472149 1.91794
thorax -3.30179 -1.03971 3.33475
lowerneck -16.9377 1.76295 -11.2987
upperneck 17.1467 5.89397 -4.00344
head 7.99251 1.52862 1.15144
rclavicle 4.37326e-015 2.18663e-014
rhumerus 24.5545 33.9469 -64.0196
rradius 65.9491
rwrist 13.1954
rhand -1.72295 20.6934
rfingers 7.12502
rthumb 23.9391 -7.83423
lclavicle 4.37326e-015 2.18663e-014
lhumerus 25.4243 -21.4 81.5508
lradius 54.6189
lwrist -30.1484
lhand 23.5822 35.0599
lfingers 7.12502
lthumb 47.8563 57.3394
rfemur -68.2614 -11.6301 14.7282
rtibia 73.2016
rfoot 19.7918 -0.954321
rtoes 22.8069
lfemur -67.3688 9.11998 -14.303
ltibia 73.3718
lfoot 20.8486 -2.63023
ltoes 23.9977
675
root 16.8207 9.87731 -6.64516 -113.075 -86.3494 91.4244
lowerback 42.7762 3.22541 -3.30964
upperback 15.1594 0.317594 2.07669
thorax -3.34389 -1.13972 3.832
lowerneck -17.0235 1.67096 -11.6854
upperneck 17.2403 5.87325 -3.97309
head 8.0324 1.48475 1.22046
rclavicle -7.55382e-015 7.15625e-015
rhumerus 24.6334 34.2672 -63.7715
rradius 66.089
rwrist 12.9965
rhand -1.35277 20.6719
rfingers 7.12502
rthumb 24.294 -7.80868
lclavicle -7.55382e-015 7.15625e-015
lhumerus 25.0873 -20.7346 82.1284
lradius 54.6936
lwrist -30.4865
lhand 23.7542 34.959
lfingers 7.12502
lthumb 48.015 57.1648
rfemur -68.3675 -11.9463 14.3711
rtibia 73.3433
rfoot 19.6723 -1.08057
rtoes 24.119
lfemur -67.4879 9.17868 -14.844
ltibia 73.3989
lfoot 20.8486 -2.89706
ltoes 23.562
676
root 16.8045 9.879 -6.63833 -110.062 -86.2566 88.4508
lowerback 42.6765 3.06067 -3.65495
upperback 15.1427 -0.024825 1.89383
thorax -3.30582 -1.30999 3.94239
lowerneck -17.0451 1.75668 -11.4216
upperneck 17.2655 5.9053 -3.826
head 8.04082 1.53369 1.2334
rclavicle -3.57812e-015 -9.54166e-015
rhumerus 24.6822 34.708 -64.1904
rradius 66.2115
rwrist 13.066
rhand -1.51196 20.3579
rfingers 7.12502
rthumb 24.1414 -8.14301
lclavicle -3.57812e-015 -9.54166e-015
lhumerus 24.824 -20.1221 81.8944
lradius 54.7123
lwrist -30.6154
lhand 24.028 35.0442
lfingers 7.12502
lthumb 48.2673 57.1313
rfemur -68.3926 -12.2592 14.2429
rtibia 73.4469
rfoot 19.5834 -0.728276
rtoes 23.4087
lfemur -67.5674 9.23973 -15.3246
ltibia 73.4271
lfoot 20.6542 -3.07758
ltoes 22.8441
677
root 16.8006 9.87973 -6.63632 -109.808 -86.0532 88.2102
lowerback 42.7719 3.00264 -4.15976
upperback 15.0223 -0.318571 1.56591
thorax -3.43465 -1.44903 3.96415
lowerneck -17.0586 1.90539 -10.6574
upperneck 17.5382 5.95234 -3.8754
head 8.14977 1.58593 1.10815
rclavicle -1.43125e-014 8.74653e-015
rhumerus 24.601 35.2162 -65.0134
rradius 66.2007
rwrist 13.3115
rhand -1.9288 20.2968
rfingers 7.12502
rthumb 23.7417 -8.25659
lclavicle -1.43125e-014 8.74653e-015
lhumerus 24.4716 -19.6284 81.2958
lradius 54.7987
lwrist -30.5028
lhand 24.2513 35.4297
lfingers 7.12502
lthumb 48.4729 57.4189
rfemur -68.4278 -12.2823 14.0499
rtibia 73.4092
rfoot 19.5507 -0.304601
rtoes 22.3212
lfemur -67.5488 9.28279 -15.625
ltibia 73.3765
lfoot 20.5374 -3.0814
ltoes 21.979
678
root 16.8027 9.87976 -6.63736 -111.546 -85.9911 89.8978
lowerback 42.9826 3.10698 -4.09749
upperback 14.9363 -0.177346 1.52522
thorax -3.5982 -1.36875 3.83861
lowerneck -16.9842 1.66514 -10.6225
upperneck 17.8456 5.60901 -3.799
head 8.25067 1.41499 1.0917
rclavicle 1.74931e-014 -7.55382e-015
rhumerus 24.2273 34.8977 -65.2396
rradius 66.2031
rwrist 13.4884
rhand -2.33103 20.4175
rfingers 7.12502
rthumb 23.3559 -8.18545
lclavicle 1.74931e-014 -7.55382e-015
lhumerus 24.4061 -19.8648 81.3699
lradius 54.8626
lwrist -30.2867
lhand 23.9753 35.5551
lfingers 7.12502
lthumb 48.2187 57.6652
rfemur -68.3968 -12.137 14.017
rtibia 73.3738
rfoot 19.4741 -0.150037
rtoes 22.1377
lfemur -67.5401 9.53062 -15.54
ltibia 73.4534
lfoot 20.7643 -3.42123
ltoes 21.7814
